<?xml version="1.0" encoding="UTF-8" standalone="no"?>
<svg
   xmlns="http://www.w3.org/2000/svg"
   viewBox="0 0 16.933333 16.933334"
   height="64"
   width="64">
  <g transform="translate(0,-280.06665)">
    <path
       transform="matrix(0.26458334,0,0,0.26458334,0,280.06665)"
       d="M 44.599609 0.001953125 L 44.599609 0.005859375 C 43.784845 0.058394808 42.702565 0.87663227 42.28125 1.8457031 C 41.698273 3.1863771 41.902608 5.3928759 42.914062 5.5683594 C 43.960583 5.7543121 45.441737 3.8135182 45.792969 2.4003906 C 46.045177 1.4021796 45.630895 0.20834643 44.921875 0.033203125 C 44.816464 0.0067464323 44.708346 -0.00560593 44.599609 0.001953125 z M 33.570312 1.0039062 C 31.427876 1.0840322 28.977512 3.6033927 28.759766 6.0195312 C 28.493007 8.9557706 30.865732 13.134956 33.429688 12.875 C 35.979361 12.606654 37.996541 8.0361611 37.652344 5.0859375 C 37.405503 3.0204635 35.418757 0.94141954 33.564453 1.0117188 L 33.570312 1.0039062 z M 50.394531 7.0800781 C 50.394531 7.0800781 45.195777 8.792608 45.287109 11.083984 C 45.398643 13.823462 50.091896 14.461683 52.494141 13.140625 C 53.372087 12.654918 53.337715 11.188009 53.126953 10.212891 C 52.874745 9.0607395 52.07325 7.5014576 50.394531 7.0800781 z M 5.1875 16.212891 C 2.313861 16.213382 0 18.528693 0 21.402344 L 0 58.8125 C 0 61.686113 2.313861 64 5.1875 64 L 42.597656 64 C 45.471295 64 47.785156 61.686113 47.785156 58.8125 L 47.785156 42.535156 C 47.228012 42.5824 46.44731 42.650889 45.587891 42.619141 C 44.713799 42.588904 43.769496 42.451532 42.927734 42.091797 C 42.506858 41.911891 42.11123 41.675446 41.763672 41.367188 C 41.416107 41.058778 41.117463 40.680607 40.886719 40.212891 C 40.655979 39.745174 40.492318 39.189417 40.421875 38.53125 C 40.351425 37.873083 40.37248 37.110154 40.505859 36.230469 C 39.555357 36.711111 38.62344 36.993658 37.730469 37.107422 C 36.837498 37.221186 35.982322 37.166799 35.189453 36.980469 C 34.396584 36.794138 33.665824 36.474253 33.015625 36.054688 C 32.365426 35.635122 31.796989 35.117266 31.332031 34.53125 C 30.867072 33.945234 30.504729 33.293066 30.267578 32.607422 C 30.030428 31.921816 29.919899 31.200834 29.953125 30.482422 C 29.986347 29.764009 30.163591 29.047678 30.509766 28.363281 C 30.85594 27.678884 31.368623 27.026918 32.070312 26.443359 C 31.427692 26.709816 30.781063 26.842606 30.146484 26.857422 C 29.511905 26.87254 28.890366 26.771383 28.302734 26.570312 C 27.715103 26.369242 27.159984 26.068098 26.658203 25.6875 C 26.156423 25.306939 25.709054 24.846486 25.332031 24.322266 C 24.955008 23.798045 24.64891 23.209949 24.435547 22.578125 C 24.222185 21.946301 24.100638 21.269776 24.089844 20.566406 C 24.079034 19.862998 24.17948 19.133429 24.410156 18.394531 C 24.636157 17.670601 24.995493 16.93667 25.490234 16.212891 L 5.1875 16.212891 z M 48.1875 17.455078 C 45.771097 17.560905 43.705054 18.445791 42.539062 20.644531 C 39.771534 25.842364 46.038468 33.611214 51.271484 34.341797 C 56.1884 35.029671 63.317058 29.845912 63.984375 24.416016 C 64.202076 22.589559 62.087479 21.367665 60.570312 20.693359 C 57.191676 19.211974 52.212338 17.273045 48.1875 17.462891 L 48.1875 17.455078 z "
       style="color:#000000;font-weight:900;font-size:63.44100189px;line-height:1.25;font-family:Lato;-inkscape-font-specification:'Lato Heavy';font-variant-ligatures:normal;font-variant-position:normal;font-variant-caps:normal;font-variant-numeric:normal;font-variant-alternates:normal;font-feature-settings:normal;text-indent:0;text-align:start;text-decoration:none;text-decoration-line:none;text-decoration-style:solid;text-decoration-color:#000000;letter-spacing:0;word-spacing:0;text-transform:none;text-orientation:mixed;white-space:normal;shape-padding:0;overflow:visible;isolation:auto;mix-blend-mode:normal;solid-color:#000000;solid-opacity:1;fill:#ffb43b;stroke-width:7.02417326" />
  </g>
</svg>
