<?xml version="1.0" encoding="UTF-8" standalone="no"?>
<svg
   xmlns="http://www.w3.org/2000/svg"
   width="256"
   height="64"
   viewBox="0 0 67.733334 16.933334"
   version="1.1">
  <g
     transform="translate(-32.519092,-111.94356)">
    <path
       style="color:#000000;font-style:normal;font-variant:normal;font-weight:900;font-stretch:normal;font-size:63.44070053px;line-height:1.25;font-family:Lato;-inkscape-font-specification:'Lato Heavy';font-variant-ligatures:normal;font-variant-position:normal;font-variant-caps:normal;font-variant-numeric:normal;font-variant-alternates:normal;font-feature-settings:normal;text-indent:0;text-align:start;text-decoration:none;text-decoration-line:none;text-decoration-style:solid;text-decoration-color:#000000;letter-spacing:0px;word-spacing:0px;text-transform:none;writing-mode:lr-tb;direction:ltr;text-orientation:mixed;dominant-baseline:auto;baseline-shift:baseline;text-anchor:start;white-space:normal;shape-padding:0;clip-rule:nonzero;display:inline;overflow:visible;visibility:visible;opacity:1;isolation:auto;mix-blend-mode:normal;color-interpolation:sRGB;color-interpolation-filters:linearRGB;solid-color:#000000;solid-opacity:1;vector-effect:none;fill:#ffb43b;fill-opacity:1;fill-rule:nonzero;stroke:none;stroke-width:1.59718239;stroke-linecap:butt;stroke-linejoin:miter;stroke-miterlimit:4;stroke-dasharray:none;stroke-dashoffset:0;stroke-opacity:1;color-rendering:auto;image-rendering:auto;shape-rendering:auto;text-rendering:auto;enable-background:accumulate"
       d="M 151.76953 0.24609375 C 151.33265 0.27354257 150.75138 0.71337659 150.52539 1.234375 C 150.21143 1.9580033 150.31885 3.1452048 150.86719 3.2421875 C 151.42548 3.3404552 152.22585 2.2976881 152.41602 1.5332031 C 152.54913 0.99794645 152.32699 0.35603019 151.94531 0.25976562 C 151.89025 0.24587586 151.83194 0.24217249 151.76953 0.24609375 z M 145.83398 0.78320312 C 144.68419 0.82137635 143.36579 2.1808404 143.24805 3.4804688 C 143.10495 5.0600089 144.38521 7.3099656 145.75977 7.1679688 C 147.13427 7.0262365 148.22119 4.5662573 148.0332 2.9785156 C 147.90164 1.8668054 146.83024 0.75103935 145.83398 0.78320312 z M 154.88867 4.0507812 C 154.88867 4.0507812 152.08888 4.9719695 152.14062 6.2050781 C 152.20253 7.6793962 154.72684 8.0240716 156.01953 7.3125 C 156.48965 7.0539803 156.47172 6.2625773 156.35742 5.7382812 C 156.22238 5.1190813 155.79444 4.2787246 154.88867 4.0507812 z M 130.29688 7.9160156 L 112.30469 7.9179688 L 112.30469 55.78125 L 113.75195 55.78125 L 131.7168 55.78125 C 134.5339 55.78125 137.08205 55.428364 139.35352 54.693359 L 139.35938 54.691406 L 139.36523 54.689453 C 141.60945 53.941371 143.54187 52.898635 145.125 51.544922 L 145.12695 51.544922 C 146.71555 50.183272 147.94812 48.561459 148.77734 46.71875 C 149.60423 44.881257 150.01562 42.885515 150.01562 40.785156 C 150.01562 37.987021 149.1951 35.515722 147.5293 33.628906 L 147.52734 33.626953 C 146.50325 32.455035 145.08497 31.590148 143.49023 30.865234 C 143.69527 30.74051 143.97444 30.660446 144.16797 30.529297 L 144.17578 30.521484 L 144.18359 30.513672 C 145.25723 29.759807 146.16639 28.905766 146.88672 27.945312 C 147.59547 27.000317 148.12971 25.972601 148.46875 24.882812 L 148.4707 24.878906 L 148.4707 24.875 C 148.7155 24.070717 148.86658 23.24412 148.92969 22.402344 C 148.90399 22.402759 148.87869 22.410156 148.85352 22.410156 C 147.67196 22.501621 144.42677 22.797345 144.99023 19.082031 C 140.9763 21.113036 137.57305 16.382069 140.53711 13.917969 C 137.82486 15.043852 134.91777 11.612591 137.07617 8.4941406 C 135.07988 8.1092335 132.83101 7.9179688 130.29688 7.9179688 L 130.29688 7.9160156 z M 156.92969 10.712891 C 155.6314 10.773015 154.5194 11.245829 153.89062 12.427734 C 152.40281 15.22398 155.77462 19.402217 158.58984 19.796875 C 161.2322 20.167269 165.07229 17.377321 165.42773 14.457031 C 165.54724 13.475223 164.40613 12.816049 163.5918 12.457031 C 161.77421 11.65563 159.09349 10.612683 156.92969 10.712891 z M 177.93945 11.601562 C 177.22717 11.601562 176.56569 11.755981 176.0293 12.134766 C 175.49289 12.513436 175.13484 13.101271 174.9707 13.757812 L 174.9707 13.761719 L 173.15625 21.28125 L 167.76367 22.328125 L 167.76367 26.859375 C 167.76367 27.652433 168.01682 28.412421 168.56641 28.929688 L 168.57617 28.941406 L 168.58789 28.949219 C 169.09404 29.395808 169.75922 29.634766 170.44141 29.634766 L 172.40234 29.634766 L 172.40234 45.832031 C 172.40234 47.37423 172.62774 48.793628 173.08789 50.082031 C 173.54667 51.366579 174.22089 52.490537 175.10938 53.425781 L 175.11719 53.433594 L 175.125 53.441406 C 176.03682 54.353217 177.14868 55.065153 178.42969 55.568359 L 178.4375 55.570312 L 178.44531 55.572266 C 179.76258 56.057595 181.25009 56.291016 182.89648 56.291016 L 183.73242 56.291016 L 183.73242 56.173828 C 185.20378 56.107686 186.66051 55.97021 188.05664 55.560547 L 188.06445 55.558594 L 188.06641 55.556641 C 189.74126 55.043003 191.26345 54.278009 192.61328 53.265625 L 193.23242 52.800781 L 189.82812 47.476562 L 189.82812 47.474609 C 189.61216 47.138231 189.37019 46.867713 189.06641 46.650391 C 188.71967 46.363147 188.27798 46.234375 187.85547 46.234375 C 187.5336 46.234375 187.20704 46.303707 186.91406 46.449219 C 186.91311 46.449597 186.91106 46.448803 186.91016 46.449219 C 186.74896 46.520274 186.58297 46.605299 186.40234 46.705078 C 186.28937 46.761771 186.11595 46.829336 185.90625 46.900391 C 185.77703 46.934406 185.55487 46.966797 185.25 46.966797 C 184.75289 46.966797 184.52795 46.844604 184.30273 46.5625 C 184.06421 46.217429 183.92383 45.782481 183.92383 45.162109 L 183.92383 29.634766 L 192.08789 29.634766 L 192.08789 21.228516 L 183.92383 21.228516 L 183.92383 11.603516 L 177.93945 11.601562 z M 150.74805 18.035156 C 150.74805 18.035156 149.83228 18.197331 149.73242 18.675781 C 149.61715 19.227668 149.94756 20.102097 150.39062 20.396484 C 150.92912 20.754028 151.85334 20.567776 151.96484 19.882812 C 152.07838 19.185263 151.25755 18.232674 150.74805 18.035156 z M 125.63281 18.619141 L 130.29688 18.619141 C 131.3936 18.619141 132.30324 18.708321 133.00977 18.863281 L 133.01367 18.863281 L 133.01758 18.863281 C 133.7185 19.013706 134.21481 19.247191 134.5625 19.517578 C 134.89944 19.779499 135.14354 20.105123 135.33008 20.607422 L 135.33203 20.615234 L 135.33398 20.623047 C 135.51359 21.09288 135.64062 21.812301 135.64062 22.761719 C 135.64062 23.697643 135.4842 24.383694 135.25977 24.845703 L 135.25195 24.859375 L 135.24805 24.878906 C 135.02679 25.362232 134.7412 25.683241 134.3125 25.951172 L 134.30469 25.958984 L 134.29688 25.966797 C 133.85313 26.253285 133.25825 26.482839 132.48047 26.621094 C 131.65632 26.767739 130.70061 26.845703 129.61719 26.845703 L 125.63281 26.845703 L 125.63281 18.619141 z M 209.70703 20.654297 L 209.70703 20.65625 C 207.09056 20.65625 204.70483 21.108654 202.57617 22.027344 L 202.57422 22.029297 L 202.57227 22.029297 C 200.48825 22.938273 198.68715 24.177463 197.18945 25.742188 L 197.1875 25.744141 L 197.18555 25.748047 C 195.71295 27.309861 194.57252 29.133001 193.77344 31.197266 L 193.77344 31.201172 L 193.77148 31.205078 C 192.99401 33.270968 192.60547 35.461296 192.60547 37.757812 C 192.60547 40.763557 193.05019 43.431852 193.96484 45.751953 L 193.9668 45.755859 L 193.96875 45.759766 C 194.89519 48.053788 196.1556 50.000297 197.74805 51.570312 L 197.75 51.572266 L 197.75 51.574219 C 199.35535 53.134975 201.22726 54.321749 203.3418 55.123047 L 203.34766 55.125 L 203.35156 55.126953 C 205.48051 55.903117 207.7542 56.289062 210.15234 56.289062 C 211.31157 56.289062 212.52101 56.201643 213.77734 56.029297 C 213.7783 56.029108 213.78034 56.027344 213.78125 56.027344 C 215.08557 55.872383 216.37826 55.586627 217.65625 55.167969 L 217.66016 55.166016 L 217.66406 55.164062 C 218.97529 54.719552 220.24077 54.121002 221.45703 53.369141 L 221.45898 53.369141 L 221.46094 53.367188 C 222.72285 52.578514 223.88834 51.567763 224.95312 50.347656 L 225.41211 49.820312 L 222.11133 45.748047 L 222.14453 45.792969 C 221.59539 45.01261 220.67028 44.580078 219.68359 44.580078 C 218.96138 44.580078 218.25163 44.752872 217.59375 45.082031 L 217.58789 45.083984 L 217.58203 45.087891 C 217.05341 45.362662 216.46266 45.669205 215.80664 46.007812 L 215.80078 46.009766 L 215.79492 46.013672 C 215.20913 46.326239 214.52199 46.617691 213.73242 46.880859 C 213.01591 47.119726 212.11789 47.248047 211.04102 47.248047 C 209.06307 47.248047 207.55662 46.705038 206.36328 45.625 C 205.37085 44.708616 204.7172 43.133783 204.3418 41.070312 L 222.28906 41.070312 C 222.79457 41.070312 223.2402 41.013516 223.65234 40.857422 C 224.11507 40.691123 224.52194 40.359611 224.7793 39.941406 C 225.03441 39.526792 225.17014 39.048411 225.24414 38.505859 C 225.31569 37.981148 225.34766 37.347197 225.34766 36.582031 C 225.34766 34.127153 224.96505 31.903961 224.18164 29.929688 L 224.17969 29.927734 C 223.42238 27.947035 222.34165 26.250508 220.94141 24.871094 L 220.9375 24.869141 C 219.55964 23.491994 217.89391 22.439847 215.97266 21.724609 C 214.06819 21.007595 211.97519 20.654297 209.70703 20.654297 z M 241.63086 20.65625 C 239.37992 20.65625 237.38315 20.950279 235.64453 21.558594 C 233.92819 22.138109 232.46773 22.940242 231.29102 23.978516 C 230.12553 25.006849 229.23242 26.225652 228.63281 27.609375 L 228.63086 27.611328 L 228.62891 27.613281 C 228.05574 28.965899 227.76953 30.408727 227.76953 31.912109 C 227.76953 33.498301 228.00254 34.891001 228.50195 36.080078 C 228.98212 37.22331 229.62121 38.216864 230.41992 39.039062 L 230.42383 39.041016 L 230.42969 39.048828 C 231.20772 39.826882 232.09131 40.48111 233.07227 41.005859 L 233.08008 41.011719 L 233.0918 41.019531 C 234.0532 41.500249 235.02763 41.916989 236.01367 42.267578 C 236.97871 42.610759 237.92324 42.921676 238.84766 43.201172 L 238.85742 43.203125 L 238.86914 43.207031 C 239.76865 43.452701 240.5567 43.726215 241.23047 44.023438 L 241.23828 44.03125 L 241.25 44.035156 C 241.89677 44.301235 242.38784 44.611644 242.74023 44.947266 C 243.02914 45.222415 243.15039 45.496598 243.15039 45.964844 C 243.15039 46.210513 243.1009 46.438226 242.99609 46.677734 C 242.90229 46.892034 242.75387 47.096297 242.51562 47.302734 C 242.3096 47.481506 241.98952 47.655584 241.54688 47.798828 C 241.11898 47.917127 240.55232 47.988281 239.85156 47.988281 C 238.8399 47.988281 238.03175 47.867589 237.43555 47.658203 L 237.43555 47.65625 C 236.77199 47.414738 236.19784 47.158039 235.7168 46.888672 C 235.19007 46.593491 234.69367 46.318248 234.22852 46.064453 C 234.228 46.064151 234.22552 46.064718 234.22461 46.064453 C 233.64643 45.7345 232.98394 45.572266 232.28906 45.572266 C 231.56182 45.572266 230.88773 45.727587 230.32422 46.082031 C 229.82414 46.388929 229.40873 46.82278 229.0957 47.34375 L 229.09375 47.345703 L 226.44141 51.546875 L 226.96484 52.015625 C 227.65284 52.634825 228.46412 53.207434 229.39648 53.740234 L 229.4043 53.748047 L 229.41016 53.751953 C 230.34373 54.263172 231.35338 54.704065 232.43164 55.078125 L 232.43359 55.080078 L 232.43555 55.080078 C 233.53251 55.453117 234.66195 55.751755 235.82227 55.970703 C 236.99471 56.191805 238.16863 56.300781 239.34375 56.300781 C 241.65568 56.300781 243.72142 56.017745 245.53711 55.435547 L 245.54102 55.433594 C 247.36299 54.855364 248.91772 54.033491 250.17969 52.955078 C 251.45546 51.882788 252.42915 50.584748 253.07227 49.091797 C 253.7127 47.605044 254.03125 45.984111 254.03125 44.251953 C 254.03125 42.828319 253.79443 41.561224 253.28906 40.474609 C 252.82425 39.430893 252.18345 38.527822 251.37891 37.792969 C 250.59982 37.059438 249.71776 36.451485 248.73828 35.972656 C 247.79896 35.492732 246.83552 35.076396 245.85156 34.726562 C 244.88654 34.383381 243.94199 34.072427 243.01758 33.792969 C 242.13267 33.525378 241.34726 33.24725 240.66016 32.964844 C 240.01151 32.6776 239.51153 32.363851 239.1543 32.042969 C 238.88784 31.787851 238.78125 31.546972 238.78125 31.126953 C 238.78125 30.495205 238.95205 30.16584 239.41406 29.837891 L 239.41602 29.835938 L 239.41797 29.835938 C 239.89847 29.490489 240.6829 29.261719 241.82422 29.261719 C 242.62486 29.261719 243.31158 29.359598 243.89258 29.541016 L 243.9043 29.544922 L 243.91602 29.548828 C 244.56309 29.731001 245.13097 29.928506 245.61719 30.142578 L 245.62109 30.146484 L 245.62695 30.148438 C 246.1719 30.378989 246.67462 30.598389 247.13281 30.806641 L 247.14844 30.814453 L 247.16211 30.822266 C 247.71832 31.049415 248.29721 31.169922 248.87695 31.169922 C 249.42295 31.169922 249.93731 31.065977 250.38086 30.796875 C 250.82843 30.537977 251.18339 30.149255 251.48438 29.673828 L 254.07227 25.644531 L 253.59766 25.169922 C 252.93647 24.508769 252.17743 23.910874 251.32617 23.373047 C 250.47165 22.811976 249.53346 22.332598 248.51367 21.933594 C 247.48794 21.532208 246.39033 21.220498 245.22266 21 L 245.21875 21 C 244.06387 20.778142 242.8674 20.669922 241.63281 20.669922 L 241.63086 20.65625 z M 153.49414 24.214844 L 153.49414 55.783203 L 165.01172 55.783203 L 165.01172 24.214844 L 164.21289 24.214844 L 153.49414 24.214844 z M 209.89648 29.125 C 210.86104 29.125 211.63346 29.288299 212.23438 29.580078 C 212.87282 29.889999 213.35097 30.279841 213.71094 30.759766 L 213.7207 30.775391 L 213.73242 30.791016 C 214.12211 31.269277 214.392 31.808751 214.55469 32.441406 L 214.55664 32.453125 L 214.56055 32.464844 C 214.67382 32.861316 214.68459 33.279526 214.73047 33.689453 L 204.49023 33.689453 C 204.84672 32.339217 205.34604 31.23013 206.07031 30.505859 L 206.07422 30.503906 L 206.07617 30.5 C 206.96204 29.596428 208.17064 29.130859 209.89648 29.130859 L 209.89648 29.125 z M 125.63281 36.705078 L 131.46875 36.705078 C 132.69526 36.705078 133.66616 36.826019 134.34375 37.019531 C 135.05633 37.22287 135.54281 37.492252 135.85352 37.765625 L 135.86328 37.773438 L 135.87305 37.779297 C 136.21385 38.067675 136.41162 38.367542 136.53906 38.775391 L 136.54492 38.794922 L 136.55078 38.816406 C 136.71685 39.299619 136.8125 39.877915 136.8125 40.568359 C 136.8125 41.164542 136.73578 41.747249 136.58203 42.328125 C 136.45402 42.811791 136.23401 43.221799 135.88086 43.619141 C 135.57185 43.966857 135.08819 44.306468 134.36133 44.59375 L 134.35742 44.595703 L 134.35156 44.597656 C 133.73533 44.847105 132.78561 45.017578 131.5293 45.017578 L 125.63086 45.017578 L 125.63281 36.705078 z M 146.49023 55.646484 C 145.66864 55.723965 144.87301 56.291043 144.93164 56.769531 C 145.00292 57.351087 146.15183 58.092378 147.14062 57.96875 C 148.14742 57.842892 148.62047 56.886372 148.31055 56.320312 C 148.09353 55.923991 147.20209 55.579284 146.49023 55.646484 z M 139.33594 58.904297 C 138.75069 58.936964 138.1178 59.219744 137.75977 59.685547 C 137.06356 60.591122 136.91036 62.507364 137.74023 63.001953 C 138.57015 63.496542 140.13951 62.451061 140.65234 61.400391 C 141.01144 60.664706 140.26953 59.128906 140.26953 59.128906 C 140.02113 58.955043 139.68708 58.884697 139.33594 58.904297 z M 153.03711 59.775391 C 151.32775 59.811311 149.53516 60.15625 149.53516 60.15625 C 148.7934 62.095034 151.635 63.647664 154.24609 63.753906 C 155.19563 63.792457 155.93079 63.107855 156.26562 62.597656 C 156.66108 61.995048 156.38373 60.658429 155.61719 60.1875 C 155.05744 59.843601 154.06273 59.753838 153.03711 59.775391 z "
       transform="matrix(0.26458334,0,0,0.26458334,32.519092,111.94356)" />
    <path
       style="font-style:normal;font-variant:normal;font-weight:900;font-stretch:normal;font-size:14.39485264px;line-height:1.25;font-family:Lato;-inkscape-font-specification:'Lato Heavy';font-variant-ligatures:normal;font-variant-position:normal;font-variant-caps:normal;font-variant-numeric:normal;font-variant-alternates:normal;font-feature-settings:normal;text-indent:0;text-align:start;text-decoration:none;text-decoration-line:none;text-decoration-style:solid;text-decoration-color:#000000;letter-spacing:0px;word-spacing:0px;text-transform:none;writing-mode:lr-tb;direction:ltr;text-orientation:mixed;dominant-baseline:auto;baseline-shift:baseline;text-anchor:start;white-space:normal;shape-padding:0;fill:#232323;fill-opacity:1;stroke:none;stroke-width:1.42858589;stroke-linecap:butt;stroke-linejoin:miter;stroke-miterlimit:4;stroke-dasharray:none;stroke-dashoffset:0;stroke-opacity:1"
       d="M 81.191406 14.417969 L 81.191406 55.140625 L 89.625 55.140625 L 89.625 35.037109 C 90.368546 34.366117 91.148758 33.832561 91.964844 33.433594 C 92.780929 33.034602 93.651274 32.833984 94.576172 32.833984 C 95.809369 32.833984 96.742219 33.224089 97.376953 34.003906 C 98.011687 34.765582 98.330078 35.834598 98.330078 37.212891 L 98.330078 55.140625 L 106.76367 55.140625 L 106.76367 37.212891 C 106.76367 35.671398 106.55383 34.249111 106.13672 32.943359 C 105.71961 31.619492 105.1032 30.486011 104.28711 29.542969 C 103.47102 28.58181 102.4645 27.838434 101.26758 27.3125 C 100.08879 26.76845 98.728995 26.496094 97.1875 26.496094 C 95.537192 26.496094 94.112942 26.76845 92.916016 27.3125 C 91.737224 27.838434 90.640574 28.535749 89.625 29.40625 L 89.625 14.417969 L 81.191406 14.417969 z M 10.638672 18.742188 C 9.6231002 18.742188 9.0066877 19.178353 8.7890625 20.048828 L 7.1289062 26.931641 L 2.640625 27.800781 L 2.640625 31.09375 C 2.640625 31.6378 2.795217 32.053583 3.1035156 32.34375 C 3.4118167 32.615775 3.7835047 32.751953 4.21875 32.751953 L 6.6132812 32.751953 L 6.6132812 47.333984 C 6.6132812 48.58531 6.7935439 49.718791 7.15625 50.734375 C 7.5189561 51.749934 8.0452361 52.620286 8.734375 53.345703 C 9.4416481 54.052979 10.302785 54.604939 11.318359 55.003906 C 12.35207 55.384757 13.540806 55.576172 14.882812 55.576172 C 16.333632 55.576172 17.739466 55.375529 19.099609 54.976562 C 20.459753 54.559454 21.683368 53.943054 22.771484 53.126953 L 20.214844 49.128906 C 20.051634 48.875048 19.887835 48.692835 19.724609 48.583984 C 19.579528 48.456992 19.380847 48.394531 19.126953 48.394531 C 18.945601 48.394531 18.781802 48.429386 18.636719 48.501953 C 18.50978 48.556378 18.364397 48.629994 18.201172 48.720703 C 18.056093 48.79327 17.873875 48.864933 17.65625 48.9375 C 17.456762 48.991925 17.20283 49.019531 16.894531 49.019531 C 16.296068 49.019531 15.834248 48.81164 15.507812 48.394531 C 15.199514 47.959281 15.044922 47.414594 15.044922 46.761719 L 15.044922 32.751953 L 22.037109 32.751953 L 22.037109 26.986328 L 15.044922 26.986328 L 15.044922 18.742188 L 10.638672 18.742188 z M 37.835938 26.496094 C 35.677842 26.496094 33.738472 26.867769 32.015625 27.611328 C 30.310912 28.354862 28.849828 29.361392 27.634766 30.630859 C 26.43784 31.900327 25.514196 33.377877 24.861328 35.064453 C 24.226594 36.751029 23.908203 38.537768 23.908203 40.423828 C 23.908203 42.926505 24.279894 45.1198 25.023438 47.005859 C 25.785118 48.891919 26.810052 50.470767 28.097656 51.740234 C 29.403392 53.009702 30.917775 53.970171 32.640625 54.623047 C 34.381609 55.257781 36.240056 55.576172 38.216797 55.576172 C 39.177966 55.576172 40.184486 55.502556 41.236328 55.357422 C 42.30631 55.23048 43.368079 54.994958 44.419922 54.650391 C 45.489904 54.287682 46.524047 53.798233 47.521484 53.181641 C 48.537059 52.546907 49.479119 51.731817 50.349609 50.734375 L 47.902344 47.714844 C 47.557774 47.225193 47.049911 46.978516 46.378906 46.978516 C 45.871119 46.978516 45.381672 47.098142 44.910156 47.333984 C 44.456774 47.569751 43.948911 47.83288 43.386719 48.123047 C 42.842661 48.413113 42.217039 48.674314 41.509766 48.910156 C 40.80249 49.145999 39.957819 49.265625 38.978516 49.265625 C 37.146856 49.265625 35.650889 48.739342 34.490234 47.6875 C 33.329577 46.617516 32.613825 44.902516 32.341797 42.544922 L 48.609375 42.544922 C 48.990208 42.544922 49.297436 42.500865 49.533203 42.410156 C 49.787094 42.319548 49.987729 42.155764 50.132812 41.919922 C 50.277896 41.68418 50.377241 41.367742 50.431641 40.96875 C 50.486041 40.569783 50.513672 40.052703 50.513672 39.417969 C 50.513672 37.386825 50.195281 35.572481 49.560547 33.976562 C 48.943947 32.362528 48.073603 31.002727 46.949219 29.896484 C 45.842969 28.790242 44.510804 27.947521 42.951172 27.367188 C 41.409676 26.786854 39.703868 26.496094 37.835938 26.496094 z M 67.355469 26.496094 C 65.052293 26.496094 63.020837 26.867769 61.261719 27.611328 C 59.520735 28.354862 58.052395 29.379796 56.855469 30.685547 C 55.676677 31.973131 54.778707 33.505943 54.162109 35.283203 C 53.563644 37.042321 53.263672 38.935654 53.263672 40.966797 C 53.263672 43.288107 53.607734 45.356379 54.296875 47.169922 C 55.004148 48.98344 55.948161 50.516252 57.126953 51.767578 C 58.323879 53.000788 59.702087 53.942853 61.261719 54.595703 C 62.839485 55.248579 64.490043 55.576172 66.212891 55.576172 C 67.17406 55.576172 68.16216 55.502556 69.177734 55.357422 C 70.193309 55.23048 71.199828 54.994958 72.197266 54.650391 C 73.21284 54.287682 74.20094 53.798233 75.162109 53.181641 C 76.123276 52.546907 77.039663 51.731817 77.910156 50.734375 L 75.460938 47.714844 C 75.116368 47.225193 74.608505 46.978516 73.9375 46.978516 C 73.429715 46.978516 73.004728 47.105466 72.660156 47.359375 C 72.333724 47.613258 71.971243 47.894816 71.572266 48.203125 C 71.173291 48.493292 70.683844 48.765648 70.103516 49.019531 C 69.541324 49.255374 68.770319 49.373047 67.791016 49.373047 C 65.959356 49.373047 64.516689 48.6481 63.464844 47.197266 C 62.431135 45.746456 61.914063 43.668957 61.914062 40.966797 C 61.914062 39.679213 62.031811 38.529256 62.267578 37.513672 C 62.503335 36.479971 62.865816 35.609619 63.355469 34.902344 C 63.845119 34.195068 64.463485 33.650382 65.207031 33.269531 C 65.968712 32.888681 66.864729 32.697266 67.898438 32.697266 C 68.732657 32.697266 69.431946 32.798488 69.994141 32.998047 C 70.556333 33.19753 71.045779 33.423851 71.462891 33.677734 C 71.879999 33.913426 72.25169 34.130519 72.578125 34.330078 C 72.922694 34.529637 73.303592 34.628906 73.720703 34.628906 C 74.155941 34.628906 74.490796 34.538839 74.726562 34.357422 C 74.962319 34.176055 75.207044 33.93133 75.460938 33.623047 L 77.691406 30.658203 C 76.349399 29.298052 74.844223 28.263916 73.175781 27.556641 C 71.507337 26.849365 69.567969 26.496094 67.355469 26.496094 z M 38 32.316406 C 38.906762 32.316406 39.677766 32.470988 40.3125 32.779297 C 40.947234 33.08758 41.455097 33.496114 41.835938 34.003906 C 42.234904 34.493557 42.516462 35.056672 42.679688 35.691406 C 42.861029 36.32614 42.951172 36.97742 42.951172 37.648438 L 32.423828 37.648438 C 32.713993 35.925578 33.311986 34.611837 34.21875 33.705078 C 35.125512 32.780177 36.385963 32.316406 38 32.316406 z "
       transform="matrix(0.26458334,0,0,0.26458334,32.519092,111.94356)" />
  </g>
</svg>
