<svg width="64" height="64" viewBox="0 0 128 128" version="1.1" xmlns="http://www.w3.org/2000/svg" xmlns:xlink="http://www.w3.org/1999/xlink" xml:space="preserve" xmlns:serif="http://www.serif.com/" style="fill-rule:evenodd;clip-rule:evenodd;stroke-linejoin:round;stroke-miterlimit:2;">
    <g id="path1389" transform="matrix(1.12651,0,0,1.12651,-8.58221,-7.92797)">
        <path d="M112.112,63.999C110.603,63.982 109.031,63.72 107.589,63.18C106.738,62.862 105.922,62.442 105.199,61.859C104.494,61.275 103.863,60.549 103.363,59.637C102.863,58.745 102.473,57.648 102.273,56.344C102.013,55.043 101.942,53.534 102.257,51.767C100.415,52.809 98.575,53.453 96.819,53.774C95.061,54.075 93.353,54.135 91.762,53.752C90.176,53.449 88.696,52.881 87.366,52.108C86.037,51.354 84.857,50.374 83.869,49.246C82.901,48.137 82.105,46.861 81.585,45.532C81.044,44.184 80.758,42.765 80.751,41.332C80.684,39.902 81.035,38.473 81.665,37.07C82.297,35.687 83.249,34.349 84.585,33.112C83.339,33.707 82.06,34.026 80.811,34.125C79.54,34.184 78.299,34.043 77.11,33.721C75.939,33.378 74.799,32.834 73.771,32.126C72.743,31.418 71.806,30.546 71.002,29.529C70.219,28.531 69.548,27.388 69.073,26.157C68.577,24.926 68.276,23.587 68.191,22.198C68.124,20.788 68.255,19.329 68.623,17.839C69,16.433 70.03,14.021 70.917,12.512L68.961,11.386C65.898,9.538 62.102,9.538 58.987,11.386L20.85,33.371C17.785,35.173 15.888,38.48 15.888,41.981L15.888,86.045C15.888,89.584 17.785,92.853 20.85,94.655L58.987,116.687C62.102,118.438 65.898,118.438 68.961,116.687L107.132,94.655C110.233,92.853 112.112,89.584 112.112,86.045L112.112,63.999ZM67.505,93.664C65.344,93.664 63.438,93.35 61.787,92.722C60.137,92.094 58.749,91.203 57.625,90.049C56.5,88.895 55.646,87.5 55.061,85.865C54.477,84.229 54.185,82.403 54.185,80.387L54.185,56.902L50.329,56.902C49.628,56.902 49.029,56.675 48.533,56.223C48.036,55.77 47.788,55.105 47.788,54.229L47.788,48.927L55.018,47.525L57.69,36.439C58.041,35.037 59.034,34.336 60.67,34.336L67.768,34.336L67.768,47.613L79.029,47.613L79.029,56.902L67.768,56.902L67.768,79.467C67.768,80.519 68.024,81.388 68.535,82.074C69.046,82.761 69.784,83.104 70.748,83.104C71.244,83.104 71.661,83.053 71.997,82.951C72.333,82.849 72.625,82.732 72.873,82.6C73.121,82.469 73.355,82.352 73.574,82.25C73.793,82.147 74.049,82.096 74.341,82.096C74.75,82.096 75.078,82.191 75.327,82.381C75.575,82.571 75.831,82.87 76.093,83.279L80.212,89.72C78.46,91.035 76.488,92.021 74.297,92.678C72.106,93.335 69.842,93.664 67.505,93.664ZM100.301,27.441C97.465,27.872 95.155,29.186 94.061,31.916C91.473,38.396 99.859,46.732 106.111,46.915C111.992,47.091 119.716,40.07 119.79,33.592C119.813,31.409 117.171,30.246 115.293,29.642C111.123,28.337 105.009,26.697 100.301,27.441ZM80.961,9.96C78.452,10.331 75.893,13.613 75.947,16.487C76.009,19.978 79.351,24.584 82.332,23.959C85.299,23.311 87.086,17.665 86.292,14.237C85.742,11.836 83.131,9.647 80.95,9.97L80.961,9.96ZM101.548,14.937C101.548,14.937 95.66,17.625 96.062,20.306C96.546,23.517 102.15,23.664 104.804,21.799C105.777,21.108 105.553,19.394 105.179,18.267C104.724,16.948 103.58,15.215 101.548,14.937ZM93.816,7.353L93.817,7.358C92.858,7.526 91.693,8.629 91.323,9.824C90.814,11.477 91.335,14.049 92.547,14.124C93.807,14.208 95.298,11.732 95.527,10.022C95.704,8.814 95.055,7.463 94.197,7.349C94.076,7.33 93.945,7.33 93.816,7.353Z" style="fill:rgb(255,180,59);fill-rule:nonzero;"/>
    </g>
</svg>
